<svg width="32" height="32" viewBox="0 0 32 32" fill="none" xmlns="http://www.w3.org/2000/svg">
<g clip-path="url(#clip0_3_1894)">
<path d="M30.6112 11.8146C30.4704 11.2858 30.1824 10.7828 29.7728 10.3571C29.7216 10.3055 29.664 10.2539 29.6064 10.2088C29.056 9.73801 28.384 9.46715 27.68 9.43491C27.6288 9.42846 27.5712 9.42846 27.52 9.42846H3.2C3.0336 9.42846 2.8672 9.44136 2.7072 9.46715C1.1392 9.71222 0 11.0536 0 12.653V25.551C0 25.6864 0.0064 25.8218 0.0256 25.9444C0.2176 27.5566 1.5808 28.7755 3.2 28.7755H21.1968C21.4336 28.7755 21.6512 28.6401 21.7664 28.4273C21.8752 28.2209 21.856 27.9629 21.7216 27.763C21.1136 26.873 20.7232 25.8799 20.5696 24.8029C20.512 24.4482 20.48 24.0742 20.48 23.7066V18.657L25.6 17.1931L26.7072 17.5091L29.9072 18.4248C30.0992 18.4829 30.304 18.4442 30.464 18.3216C30.624 18.1991 30.72 18.0056 30.72 17.8057V12.653C30.72 12.3692 30.6816 12.0855 30.6112 11.8146ZM29.44 16.9545L27.52 16.4063L25.7728 15.9033C25.664 15.871 25.5424 15.871 25.4272 15.9033L19.6672 17.5542C19.6352 17.5607 19.6032 17.5736 19.5776 17.5929C19.3472 17.6896 19.2 17.9154 19.2 18.1733V23.7066C19.2 23.8871 19.2064 24.0677 19.2192 24.2483C19.2192 24.2547 19.2192 24.2547 19.2192 24.2612C19.232 24.5127 19.264 24.7578 19.3024 25.0028C19.328 25.1898 19.36 25.3704 19.4048 25.551C19.5456 26.2217 19.776 26.873 20.0768 27.4857H3.2C2.2272 27.4857 1.408 26.757 1.2928 25.7832C1.2864 25.7058 1.28 25.6348 1.28 25.551V12.653C1.28 11.6921 1.9648 10.8924 2.8992 10.7441C2.9952 10.7312 3.0976 10.7183 3.2 10.7183H27.52C28.0256 10.7183 28.5056 10.9182 28.8768 11.2793C28.9216 11.3245 28.9664 11.3761 29.0048 11.4277C29.1776 11.6405 29.3056 11.892 29.376 12.1499C29.4144 12.3176 29.44 12.4853 29.44 12.653V16.9545Z" fill="#C81E1E"/>
<path d="M19.9362 25.551H6.4002C6.0482 25.551 5.7602 25.2608 5.7602 24.9061C5.7602 23.842 4.8962 22.9714 3.8402 22.9714C3.4882 22.9714 3.2002 22.6812 3.2002 22.3265V15.8775C3.2002 15.5228 3.4882 15.2326 3.8402 15.2326C4.8962 15.2326 5.7602 14.362 5.7602 13.2979C5.7602 12.9432 6.0482 12.653 6.4002 12.653H24.3202C24.6722 12.653 24.9602 12.9432 24.9602 13.2979C24.9602 14.362 25.8242 15.2326 26.8802 15.2326C27.2322 15.2326 27.5202 15.5228 27.5202 15.8775V16.89C27.5202 17.0899 27.4242 17.2834 27.2642 17.4059C27.1042 17.5284 26.8994 17.5671 26.701 17.5091L25.6002 17.1931L20.4802 18.657V23.7066C20.4802 24.0742 20.5122 24.4482 20.5698 24.8029C20.6018 24.9899 20.5506 25.1834 20.429 25.3253C20.301 25.4672 20.1218 25.551 19.9362 25.551ZM6.9762 24.2612H19.2194C19.2066 24.0742 19.2002 23.8936 19.2002 23.7066V18.1733C19.2002 17.8831 19.3922 17.6316 19.6674 17.5542L25.1202 15.9936C24.4226 15.5292 23.917 14.8005 23.7442 13.9492H6.9762C6.7202 15.2132 5.7346 16.2064 4.4802 16.4643V21.7525C5.7346 22.004 6.7202 22.9972 6.9762 24.2612Z" fill="#C81E1E"/>
<path d="M15.3599 23.6163C12.8895 23.6163 10.8799 21.5913 10.8799 19.102C10.8799 16.6127 12.8895 14.5877 15.3599 14.5877C17.8303 14.5877 19.8399 16.6127 19.8399 19.102C19.8399 21.5913 17.8303 23.6163 15.3599 23.6163ZM15.3599 15.8775C13.5935 15.8775 12.1599 17.3221 12.1599 19.102C12.1599 20.8819 13.5935 22.3265 15.3599 22.3265C17.1263 22.3265 18.5599 20.8819 18.5599 19.102C18.5599 17.3221 17.1263 15.8775 15.3599 15.8775Z" fill="#C81E1E"/>
<path d="M30.6112 11.8146C30.4704 11.2858 30.1824 10.7828 29.7728 10.3571C29.7216 10.3055 29.664 10.2539 29.6064 10.2088C29.056 9.73801 28.384 9.46715 27.68 9.43491C27.6288 9.42846 27.5712 9.42846 27.52 9.42846H3.2C3.0336 9.42846 2.8672 9.44136 2.7072 9.46715C1.1392 9.71222 0 11.0536 0 12.653V25.551C0 25.6864 0.0064 25.8218 0.0256 25.9444C0.2176 27.5566 1.5808 28.7755 3.2 28.7755H21.1968C21.4336 28.7755 21.6512 28.6401 21.7664 28.4273C21.8752 28.2209 21.856 27.9629 21.7216 27.763C21.1136 26.873 20.7232 25.8799 20.5696 24.8029C20.512 24.4482 20.48 24.0742 20.48 23.7066V18.657L25.6 17.1931L26.7072 17.5091L29.9072 18.4248C30.0992 18.4829 30.304 18.4442 30.464 18.3216C30.624 18.1991 30.72 18.0056 30.72 17.8057V12.653C30.72 12.3692 30.6816 12.0855 30.6112 11.8146ZM29.44 16.9545L27.52 16.4063L25.7728 15.9033C25.664 15.871 25.5424 15.871 25.4272 15.9033L19.6672 17.5542C19.6352 17.5607 19.6032 17.5736 19.5776 17.5929C19.3472 17.6896 19.2 17.9154 19.2 18.1733V23.7066C19.2 23.8871 19.2064 24.0677 19.2192 24.2483C19.2192 24.2547 19.2192 24.2547 19.2192 24.2612C19.232 24.5127 19.264 24.7578 19.3024 25.0028C19.328 25.1898 19.36 25.3704 19.4048 25.551C19.5456 26.2217 19.776 26.873 20.0768 27.4857H3.2C2.2272 27.4857 1.408 26.757 1.2928 25.7832C1.2864 25.7058 1.28 25.6348 1.28 25.551V12.653C1.28 11.6921 1.9648 10.8924 2.8992 10.7441C2.9952 10.7312 3.0976 10.7183 3.2 10.7183H27.52C28.0256 10.7183 28.5056 10.9182 28.8768 11.2793C28.9216 11.3245 28.9664 11.3761 29.0048 11.4277C29.1776 11.6405 29.3056 11.892 29.376 12.1499C29.4144 12.3176 29.44 12.4853 29.44 12.653V16.9545Z" fill="#C81E1E"/>
<path opacity="0.5" d="M29.4398 12.653V16.9545L27.5198 16.4063V15.8775C27.5198 15.5228 27.2318 15.2326 26.8798 15.2326C25.8238 15.2326 24.9598 14.362 24.9598 13.2979C24.9598 12.9432 24.6718 12.653 24.3198 12.653H6.39979C6.04778 12.653 5.75979 12.9432 5.75979 13.2979C5.75979 14.362 4.89579 15.2326 3.83979 15.2326C3.48779 15.2326 3.19979 15.5228 3.19979 15.8775V22.3265C3.19979 22.6812 3.48779 22.9714 3.83979 22.9714C4.89579 22.9714 5.75979 23.842 5.75979 24.9061C5.75979 25.2608 6.04778 25.551 6.39979 25.551H19.4046C19.5454 26.2217 19.7758 26.873 20.0766 27.4857H3.19979C2.22699 27.4857 1.40779 26.757 1.29259 25.7832C1.28619 25.7058 1.27979 25.6348 1.27979 25.551V12.653C1.27979 11.6921 1.96459 10.8924 2.89899 10.7441C2.99499 10.7312 3.09739 10.7183 3.19979 10.7183H27.411C27.9166 10.7183 28.3966 10.9182 28.7678 11.2858C28.8382 11.3503 28.9214 11.4019 29.0046 11.4277C29.1774 11.6405 29.3054 11.892 29.3758 12.1499C29.4142 12.3176 29.4398 12.4853 29.4398 12.653Z" fill="#C81E1E"/>
<path d="M26.8802 15.2326C25.8242 15.2326 24.9602 14.362 24.9602 13.2979C24.9602 12.9432 24.6722 12.653 24.3202 12.653H6.4002C6.0482 12.653 5.7602 12.9432 5.7602 13.2979C5.7602 14.362 4.8962 15.2326 3.8402 15.2326C3.4882 15.2326 3.2002 15.5228 3.2002 15.8775V22.3265C3.2002 22.6812 3.4882 22.9714 3.8402 22.9714C4.8962 22.9714 5.7602 23.842 5.7602 24.9061C5.7602 25.2608 6.0482 25.551 6.4002 25.551H19.9362C20.1218 25.551 20.301 25.4672 20.4226 25.3253C20.5442 25.177 20.5954 24.9899 20.5698 24.8029C20.5122 24.4482 20.4802 24.0742 20.4802 23.7066V18.657L25.6002 17.1931L26.7074 17.5091C26.8994 17.5671 27.1042 17.5284 27.2642 17.4059C27.4242 17.2834 27.5202 17.0899 27.5202 16.89V15.8775C27.5202 15.5228 27.2322 15.2326 26.8802 15.2326ZM6.9762 24.2612C6.7202 22.9972 5.7346 22.004 4.4802 21.7461V16.4579C5.7346 16.1999 6.7202 15.2068 6.9762 13.9428H23.7442C23.917 14.794 24.4226 15.5228 25.1202 15.9871L19.6674 17.5542C19.6354 17.5607 19.6034 17.5736 19.5778 17.5929C19.3474 17.6896 19.2002 17.9154 19.2002 18.1733V23.7066C19.2002 23.8871 19.2066 24.0677 19.2194 24.2483C19.2194 24.2547 19.2194 24.2547 19.2194 24.2612H6.9762Z" fill="#C81E1E"/>
<path d="M19.5775 17.5929C18.9631 15.8452 17.3055 14.5877 15.3599 14.5877C12.8895 14.5877 10.8799 16.6127 10.8799 19.102C10.8799 21.5913 12.8895 23.6163 15.3599 23.6163C16.9855 23.6163 18.4191 22.7392 19.1999 21.4236C19.6095 20.7465 19.8399 19.9532 19.8399 19.102C19.8399 18.5732 19.7503 18.0637 19.5775 17.5929ZM15.3599 22.3265C13.5935 22.3265 12.1599 20.8819 12.1599 19.102C12.1599 17.3221 13.5935 15.8775 15.3599 15.8775C17.1263 15.8775 18.5599 17.3221 18.5599 19.102C18.5599 20.8819 17.1263 22.3265 15.3599 22.3265Z" fill="#C81E1E"/>
<path opacity="0.5" d="M15.3602 22.3265C17.1275 22.3265 18.5602 20.8828 18.5602 19.102C18.5602 17.3211 17.1275 15.8775 15.3602 15.8775C13.5928 15.8775 12.1602 17.3211 12.1602 19.102C12.1602 20.8828 13.5928 22.3265 15.3602 22.3265Z" fill="#C81E1E"/>
<path d="M23.5136 6.02338C23.3344 5.71383 22.944 5.61065 22.6368 5.78477C22.1952 6.04273 21.6768 6.11367 21.184 5.97824C20.6848 5.84281 20.2752 5.52036 20.0192 5.07538C19.9296 4.92705 19.7952 4.81742 19.6288 4.77227C19.4624 4.73358 19.2896 4.75293 19.1424 4.83676L11.2512 9.42846H13.8176L19.2832 6.2491C19.6928 6.71343 20.2368 7.05522 20.8512 7.2229C21.4656 7.39057 22.0992 7.37123 22.6944 7.17131L23.9872 9.42846H25.4656L23.5136 6.02338ZM29.7728 10.499L29.6064 10.2088L24.6848 1.61871C24.2624 0.877071 23.5712 0.341803 22.7456 0.116087C21.92 -0.109628 21.056 5.06162e-06 20.3136 0.432089L4.85755 9.42846L4.70395 9.51875C4.45435 9.66063 4.33275 9.96373 4.40955 10.241C4.47995 10.5248 4.73595 10.7183 5.02395 10.7183H11.424C11.5392 10.7183 11.648 10.686 11.744 10.6344L13.8176 9.42846L19.2832 6.2491C19.6928 6.71343 20.2368 7.05522 20.8512 7.2229C21.4656 7.39057 22.0992 7.37123 22.6944 7.17131L23.9872 9.42846L24.5376 10.3958C24.6528 10.5957 24.864 10.7183 25.0944 10.7183H27.4112C27.9168 10.7183 28.3968 10.9182 28.768 11.2858C28.8384 11.3503 28.9216 11.4019 29.0048 11.4277C29.0752 11.4535 29.1456 11.4663 29.216 11.4663C29.3568 11.4663 29.4912 11.4212 29.6064 11.3309C29.8624 11.131 29.9328 10.7763 29.7728 10.499ZM25.4656 9.42846L23.5136 6.02338C23.3344 5.71383 22.944 5.61065 22.6368 5.78477C22.1952 6.04273 21.6768 6.11367 21.184 5.97824C20.6848 5.84281 20.2752 5.52036 20.0192 5.07538C19.9296 4.92705 19.7952 4.81742 19.6288 4.77227C19.4624 4.73358 19.2896 4.75293 19.1424 4.83676L11.2512 9.42846H7.41115L20.9536 1.55422C21.4016 1.28981 21.92 1.22532 22.4128 1.36075C22.9056 1.49618 23.3216 1.81218 23.5712 2.26361L27.68 9.43491L27.6864 9.44136C27.5968 9.43491 27.5008 9.42846 27.4112 9.42846H25.4656ZM23.5136 6.02338C23.3344 5.71383 22.944 5.61065 22.6368 5.78477C22.1952 6.04273 21.6768 6.11367 21.184 5.97824C20.6848 5.84281 20.2752 5.52036 20.0192 5.07538C19.9296 4.92705 19.7952 4.81742 19.6288 4.77227C19.4624 4.73358 19.2896 4.75293 19.1424 4.83676L11.2512 9.42846H13.8176L19.2832 6.2491C19.6928 6.71343 20.2368 7.05522 20.8512 7.2229C21.4656 7.39057 22.0992 7.37123 22.6944 7.17131L23.9872 9.42846H25.4656L23.5136 6.02338Z" fill="#C81E1E"/>
<path opacity="0.5" d="M27.6799 9.43491C27.6287 9.42846 27.5711 9.42846 27.5199 9.42846H25.4655L23.5135 6.02338C23.3343 5.71383 22.9439 5.61065 22.6367 5.78477C22.1951 6.04273 21.6767 6.11367 21.1839 5.97824C20.6847 5.84281 20.2751 5.52036 20.0191 5.07538C19.9295 4.92705 19.7951 4.81742 19.6287 4.77227C19.4623 4.73358 19.2895 4.75293 19.1423 4.83676L11.2511 9.42846H7.41113L20.9535 1.55422C21.4015 1.28981 21.9199 1.22532 22.4127 1.36075C22.9055 1.49617 23.3215 1.81218 23.5711 2.26361L27.6799 9.43491Z" fill="#C81E1E"/>
<path d="M25.0943 10.7183H11.4239C11.1359 10.7183 10.8799 10.5248 10.8031 10.241C10.7263 9.95728 10.8479 9.66062 11.1039 9.51229L19.1423 4.83676C19.2895 4.75292 19.4623 4.72713 19.6287 4.77227C19.7951 4.81741 19.9295 4.92705 20.0191 5.07537C20.2751 5.52036 20.6847 5.84281 21.1839 5.97824C21.6767 6.11366 22.1951 6.04273 22.6431 5.79121C22.9503 5.61064 23.3407 5.72028 23.5199 6.02983L25.6575 9.75736C25.7727 9.95728 25.7727 10.2023 25.6575 10.4023C25.5423 10.6022 25.3247 10.7183 25.0943 10.7183ZM13.8111 9.42846H23.9807L22.6879 7.1713C22.0991 7.37122 21.4591 7.39057 20.8447 7.22289C20.2303 7.05522 19.6927 6.71987 19.2767 6.24909L13.8111 9.42846Z" fill="#C81E1E"/>
<path d="M31.533 17.5542L25.773 15.9033C25.6642 15.871 25.5426 15.871 25.4274 15.9033L19.6674 17.5542C19.3922 17.6316 19.2002 17.8831 19.2002 18.1733V23.7066C19.2002 24.1451 19.2322 24.5836 19.3026 25.0028C19.4882 26.2539 19.9426 27.4277 20.653 28.4724C20.6978 28.5562 20.7554 28.6336 20.8194 28.7175C21.1394 29.1689 21.4978 29.5816 21.8626 29.9299C22.0418 30.104 22.2274 30.2588 22.4258 30.42C23.3218 31.1423 24.333 31.6647 25.4274 31.9742C25.485 31.9936 25.5426 32 25.6002 32C25.6578 32 25.7154 31.9936 25.773 31.9742C29.4402 30.9295 32.0002 27.5308 32.0002 23.7066V18.1733C32.0002 17.8831 31.8082 17.6316 31.533 17.5542ZM30.7202 23.7066C30.7202 26.8924 28.621 29.7364 25.6002 30.6844C24.7362 30.4135 23.9362 29.9879 23.2258 29.4139C23.0722 29.285 22.9122 29.1624 22.7522 29.0012C22.4322 28.6981 22.1314 28.3499 21.8498 27.9565C21.8178 27.9113 21.7858 27.8662 21.7602 27.8275C21.7474 27.8017 21.7346 27.7823 21.7218 27.763C21.1138 26.873 20.7234 25.8799 20.5698 24.8029C20.5122 24.4482 20.4802 24.0742 20.4802 23.7066V18.657L25.6002 17.1931L30.7202 18.657V23.7066Z" fill="#C81E1E"/>
<path opacity="0.5" d="M25.6 17.1931L20.48 18.657V23.7066C20.48 24.0742 20.512 24.4482 20.5696 24.8029C20.7232 25.8799 21.1136 26.873 21.7216 27.763C21.7344 27.7823 21.7472 27.8017 21.76 27.8275C21.7856 27.8662 21.8176 27.9113 21.8496 27.9565C22.1312 28.3499 22.432 28.6981 22.752 29.0012C22.912 29.1624 23.072 29.285 23.2256 29.4139C23.936 29.9879 24.736 30.4135 25.6 30.6844C28.6208 29.7364 30.72 26.8924 30.72 23.7066V18.657L25.6 17.1931ZM28.6144 22.7844L25.4144 26.0089C25.2864 26.1314 25.1264 26.1959 24.96 26.1959C24.7936 26.1959 24.6336 26.1314 24.5056 26.0089L22.9056 24.3966C22.656 24.1451 22.656 23.7324 22.9056 23.4809C23.1552 23.2293 23.5648 23.2293 23.8144 23.4809L24.96 24.6417L27.7056 21.8686C27.9552 21.6171 28.3648 21.6171 28.6144 21.8686C28.864 22.1201 28.864 22.5329 28.6144 22.7844Z" fill="#C81E1E"/>
</g>
<defs>
<clipPath id="clip0_3_1894">
<rect width="32" height="32" fill="white"/>
</clipPath>
</defs>
</svg>
